<svg xmlns="http://www.w3.org/2000/svg" viewBox="0 0 1000 1000" preserveAspectRatio="none">
  <defs>
    <mask id="tornPaperMask">
      <!-- Черный фон маски (скрытая область) -->
      <rect width="1000" height="1000" fill="black"/>
      
      <!-- Неровные края по периметру (белые области - видимые) -->
      <!-- Замкнутый путь со всеми четырьмя рваными краями, одинаковыми по стилю -->
      <path d="M 0,0 L 14,5 L 28,2 L 42,6 L 56,1 L 70,7 L 84,3 L 98,8 L 112,4 L 126,9 L 140,2 L 154,8 L 168,5 L 182,9 L 196,3 L 210,7 L 224,4 L 238,8 L 252,2 L 266,7 L 280,5 L 294,9 L 308,1 L 322,8 L 336,4 L 350,9 L 364,3 L 378,8 L 392,6 L 406,9 L 420,2 L 434,7 L 448,5 L 462,8 L 476,3 L 490,8 L 504,4 L 518,9 L 532,2 L 546,7 L 560,5 L 574,9 L 588,1 L 602,8 L 616,4 L 630,9 L 644,3 L 658,8 L 672,6 L 686,9 L 700,2 L 714,7 L 728,5 L 742,8 L 756,3 L 770,8 L 784,4 L 798,9 L 812,2 L 826,7 L 840,5 L 854,9 L 868,1 L 882,8 L 896,4 L 910,9 L 924,3 L 938,8 L 952,6 L 966,9 L 980,2 L 994,7 L 1000,14 L 1000,28 L 995,42 L 1000,56 L 992,70 L 1000,84 L 994,98 L 1000,112 L 996,126 L 1000,140 L 998,154 L 1000,168 L 997,182 L 1000,196 L 999,210 L 1000,224 L 998,238 L 1000,252 L 996,266 L 1000,280 L 997,294 L 1000,308 L 994,322 L 1000,336 L 995,350 L 1000,364 L 993,378 L 1000,392 L 998,406 L 1000,420 L 997,434 L 1000,448 L 992,462 L 1000,476 L 996,490 L 1000,504 L 998,518 L 1000,532 L 994,546 L 1000,560 L 997,574 L 1000,588 L 995,602 L 1000,616 L 999,630 L 1000,644 L 998,658 L 1000,672 L 996,686 L 1000,700 L 997,714 L 1000,728 L 992,742 L 1000,756 L 995,770 L 1000,784 L 993,798 L 1000,812 L 998,826 L 1000,840 L 997,854 L 1000,868 L 994,882 L 1000,896 L 996,910 L 1000,924 L 998,938 L 1000,952 L 992,966 L 1000,980 L 1000,986 L 986,995 L 972,992 L 958,998 L 944,993 L 930,999 L 916,994 L 902,1000 L 888,995 L 874,999 L 860,993 L 846,1000 L 832,997 L 818,999 L 804,996 L 790,1000 L 776,995 L 762,999 L 748,994 L 734,1000 L 720,998 L 706,1000 L 692,997 L 678,1000 L 664,995 L 650,999 L 636,994 L 622,1000 L 608,996 L 594,999 L 580,997 L 566,1000 L 552,995 L 538,999 L 524,996 L 510,1000 L 496,997 L 482,999 L 468,998 L 454,1000 L 440,995 L 426,999 L 412,994 L 398,1000 L 384,996 L 370,999 L 356,995 L 342,1000 L 328,997 L 314,999 L 300,998 L 286,1000 L 272,995 L 258,999 L 244,994 L 230,1000 L 216,996 L 202,999 L 188,997 L 174,1000 L 160,995 L 146,999 L 132,994 L 118,1000 L 104,998 L 90,1000 L 76,996 L 62,999 L 48,995 L 34,1000 L 20,998 L 6,1000 L 5,986 L 8,972 L 2,958 L 7,944 L 1,930 L 6,916 L 0,902 L 5,888 L 2,874 L 6,860 L 1,846 L 7,832 L 3,818 L 8,804 L 2,790 L 7,776 L 4,762 L 9,748 L 3,734 L 8,720 L 2,706 L 7,692 L 5,678 L 9,664 L 4,650 L 8,636 L 1,622 L 6,608 L 3,594 L 8,580 L 2,566 L 7,552 L 4,538 L 9,524 L 3,510 L 8,496 L 2,482 L 7,468 L 5,454 L 9,440 L 4,426 L 8,412 L 1,398 L 6,384 L 3,370 L 8,356 L 2,342 L 7,328 L 4,314 L 9,300 L 3,286 L 8,272 L 2,258 L 7,244 L 5,230 L 9,216 L 4,202 L 8,188 L 1,174 L 6,160 L 3,146 L 8,132 L 2,118 L 7,104 L 4,90 L 9,76 L 3,62 L 8,48 L 2,34 L 7,20 L 0,0 Z" fill="white"/>
    </mask>
  </defs>
  
  <!-- Чёрная заливка с применённой маской -->
  <rect width="1000" height="1000" fill="black" mask="url(#tornPaperMask)"/>
</svg>